HIERARCHY
ROOT mixamorig:Hips
{
	OFFSET 0.000000 201.639420 0.000000
	CHANNELS 6 Xposition Yposition Zposition Xrotation Yrotation Zrotation
	JOINT mixamorig:Spine
	{
		OFFSET 0.006200 19.524994 -2.481800
		CHANNELS 3 Xrotation Yrotation Zrotation
		JOINT mixamorig:Spine1
		{
			OFFSET -0.000900 22.835007 -2.825400
			CHANNELS 3 Xrotation Yrotation Zrotation
			JOINT mixamorig:Spine2
			{
				OFFSET -0.020600 26.552490 -3.193300
				CHANNELS 3 Xrotation Yrotation Zrotation
				JOINT mixamorig:Neck
				{
					OFFSET -0.060000 30.701813 1.352200
					CHANNELS 3 Xrotation Yrotation Zrotation
					JOINT mixamorig:Head
					{
						OFFSET -0.087200 22.547607 3.670900
						CHANNELS 3 Xrotation Yrotation Zrotation
						JOINT mixamorig:HeadTop_End
						{
							OFFSET -0.830600 40.355194 7.893500
							CHANNELS 3 Xrotation Yrotation Zrotation
							End Site
							{
								OFFSET 0.000000 30.592346 0.000000
							}
						}
						JOINT mixamorig:RightEye
						{
							OFFSET -6.302100 18.118591 16.197100
							CHANNELS 3 Xrotation Yrotation Zrotation
							End Site
							{
								OFFSET 0.000000 30.592346 0.000000
							}
						}
						JOINT mixamorig:LeftEye
						{
							OFFSET 6.741500 18.382690 16.401899
							CHANNELS 3 Xrotation Yrotation Zrotation
							End Site
							{
								OFFSET 0.000000 30.592346 0.000000
							}
						}
					}
				}
				JOINT mixamorig:LeftShoulder
				{
					OFFSET 11.924900 18.230499 1.425400
					CHANNELS 3 Xrotation Yrotation Zrotation
					JOINT mixamorig:LeftArm
					{
						OFFSET 25.435989 -0.697632 -5.229300
						CHANNELS 3 Xrotation Yrotation Zrotation
						JOINT mixamorig:LeftForeArm
						{
							OFFSET 54.684776 0.000000 0.000000
							CHANNELS 3 Xrotation Yrotation Zrotation
							JOINT mixamorig:LeftHand
							{
								OFFSET 55.098175 0.000000 0.000000
								CHANNELS 3 Xrotation Yrotation Zrotation
								JOINT mixamorig:LeftHandMiddle1
								{
									OFFSET 23.369751 0.000000 0.000000
									CHANNELS 3 Xrotation Yrotation Zrotation
									JOINT mixamorig:LeftHandMiddle2
									{
										OFFSET 6.378677 0.000000 0.000000
										CHANNELS 3 Xrotation Yrotation Zrotation
										JOINT mixamorig:LeftHandMiddle3
										{
											OFFSET 6.148331 0.000000 0.000000
											CHANNELS 3 Xrotation Yrotation Zrotation
											JOINT mixamorig:LeftHandMiddle4
											{
												OFFSET 6.582504 0.000000 0.000000
												CHANNELS 3 Xrotation Yrotation Zrotation
												End Site
												{
													OFFSET -1.168900 6.395691 1.028606
												}
											}
										}
									}
								}
								JOINT mixamorig:LeftHandThumb1
								{
									OFFSET 7.235672 -3.848206 5.434273
									CHANNELS 3 Xrotation Yrotation Zrotation
									JOINT mixamorig:LeftHandThumb2
									{
										OFFSET 6.568451 -3.792297 3.792300
										CHANNELS 3 Xrotation Yrotation Zrotation
										JOINT mixamorig:LeftHandThumb3
										{
											OFFSET 6.063080 -3.500519 3.500518
											CHANNELS 3 Xrotation Yrotation Zrotation
											JOINT mixamorig:LeftHandThumb4
											{
												OFFSET 4.793182 -2.767334 2.767349
												CHANNELS 3 Xrotation Yrotation Zrotation
												End Site
												{
													OFFSET 0.101639 6.054260 1.275483
												}
											}
										}
									}
								}
								JOINT mixamorig:LeftHandIndex1
								{
									OFFSET 23.101074 -0.309540 4.992809
									CHANNELS 3 Xrotation Yrotation Zrotation
									JOINT mixamorig:LeftHandIndex2
									{
										OFFSET 6.226883 0.000000 0.000000
										CHANNELS 3 Xrotation Yrotation Zrotation
										JOINT mixamorig:LeftHandIndex3
										{
											OFFSET 6.094330 0.000000 0.000000
											CHANNELS 3 Xrotation Yrotation Zrotation
											JOINT mixamorig:LeftHandIndex4
											{
												OFFSET 5.482605 0.000000 0.000000
												CHANNELS 3 Xrotation Yrotation Zrotation
												End Site
												{
													OFFSET -1.427902 5.233032 0.797164
												}
											}
										}
									}
								}
								JOINT mixamorig:LeftHandRing1
								{
									OFFSET 22.299240 0.021149 -3.964172
									CHANNELS 3 Xrotation Yrotation Zrotation
									JOINT mixamorig:LeftHandRing2
									{
										OFFSET 6.321869 0.000000 0.000000
										CHANNELS 3 Xrotation Yrotation Zrotation
										JOINT mixamorig:LeftHandRing3
										{
											OFFSET 5.899796 0.000000 0.000000
											CHANNELS 3 Xrotation Yrotation Zrotation
											JOINT mixamorig:LeftHandRing4
											{
												OFFSET 6.517899 0.000000 0.000000
												CHANNELS 3 Xrotation Yrotation Zrotation
												End Site
												{
													OFFSET -1.637299 6.232208 0.980890
												}
											}
										}
									}
								}
								JOINT mixamorig:LeftHandPinky1
								{
									OFFSET 20.463791 -0.302338 -8.562233
									CHANNELS 3 Xrotation Yrotation Zrotation
									JOINT mixamorig:LeftHandPinky2
									{
										OFFSET 6.908646 0.000000 0.000000
										CHANNELS 3 Xrotation Yrotation Zrotation
										JOINT mixamorig:LeftHandPinky3
										{
											OFFSET 4.622849 0.000000 0.000000
											CHANNELS 3 Xrotation Yrotation Zrotation
											JOINT mixamorig:LeftHandPinky4
											{
												OFFSET 5.216080 0.000000 0.000000
												CHANNELS 3 Xrotation Yrotation Zrotation
												End Site
												{
													OFFSET -0.606308 5.116241 0.814926
												}
											}
										}
									}
								}
							}
						}
					}
				}
				JOINT mixamorig:RightShoulder
				{
					OFFSET -12.001300 18.284088 1.348900
					CHANNELS 3 Xrotation Yrotation Zrotation
					JOINT mixamorig:RightArm
					{
						OFFSET -25.308500 -0.751312 -5.164599
						CHANNELS 3 Xrotation Yrotation Zrotation
						JOINT mixamorig:RightForeArm
						{
							OFFSET -54.684429 0.000000 0.000000
							CHANNELS 3 Xrotation Yrotation Zrotation
							JOINT mixamorig:RightHand
							{
								OFFSET -55.150291 0.000000 0.000000
								CHANNELS 3 Xrotation Yrotation Zrotation
								JOINT mixamorig:RightHandMiddle1
								{
									OFFSET -23.317566 0.000000 0.000000
									CHANNELS 3 Xrotation Yrotation Zrotation
									JOINT mixamorig:RightHandMiddle2
									{
										OFFSET -6.378403 0.000000 0.000000
										CHANNELS 3 Xrotation Yrotation Zrotation
										JOINT mixamorig:RightHandMiddle3
										{
											OFFSET -6.148193 0.000000 0.000000
											CHANNELS 3 Xrotation Yrotation Zrotation
											JOINT mixamorig:RightHandMiddle4
											{
												OFFSET -6.583389 0.000000 0.000000
												CHANNELS 3 Xrotation Yrotation Zrotation
												End Site
												{
													OFFSET 1.171692 6.395905 1.029786
												}
											}
										}
									}
								}
								JOINT mixamorig:RightHandThumb1
								{
									OFFSET -7.190521 -3.860474 5.435846
									CHANNELS 3 Xrotation Yrotation Zrotation
									JOINT mixamorig:RightHandThumb2
									{
										OFFSET -6.567429 -3.791718 3.791708
										CHANNELS 3 Xrotation Yrotation Zrotation
										JOINT mixamorig:RightHandThumb3
										{
											OFFSET -6.062469 -3.500153 3.500166
											CHANNELS 3 Xrotation Yrotation Zrotation
											JOINT mixamorig:RightHandThumb4
											{
												OFFSET -4.792618 -2.767029 2.767022
												CHANNELS 3 Xrotation Yrotation Zrotation
												End Site
												{
													OFFSET -0.100327 6.053253 1.276754
												}
											}
										}
									}
								}
								JOINT mixamorig:RightHandIndex1
								{
									OFFSET -23.048981 -0.310791 4.992554
									CHANNELS 3 Xrotation Yrotation Zrotation
									JOINT mixamorig:RightHandIndex2
									{
										OFFSET -6.227539 0.000000 0.000000
										CHANNELS 3 Xrotation Yrotation Zrotation
										JOINT mixamorig:RightHandIndex3
										{
											OFFSET -6.095047 0.000000 0.000000
											CHANNELS 3 Xrotation Yrotation Zrotation
											JOINT mixamorig:RightHandIndex4
											{
												OFFSET -5.484772 0.000000 0.000000
												CHANNELS 3 Xrotation Yrotation Zrotation
												End Site
												{
													OFFSET 1.420593 5.237305 0.797056
												}
											}
										}
									}
								}
								JOINT mixamorig:RightHandRing1
								{
									OFFSET -22.246323 0.020569 -3.963762
									CHANNELS 3 Xrotation Yrotation Zrotation
									JOINT mixamorig:RightHandRing2
									{
										OFFSET -6.322128 0.000000 0.000000
										CHANNELS 3 Xrotation Yrotation Zrotation
										JOINT mixamorig:RightHandRing3
										{
											OFFSET -5.900024 0.000000 0.000000
											CHANNELS 3 Xrotation Yrotation Zrotation
											JOINT mixamorig:RightHandRing4
											{
												OFFSET -6.518356 0.000000 0.000000
												CHANNELS 3 Xrotation Yrotation Zrotation
												End Site
												{
													OFFSET 1.636398 6.232697 0.982186
												}
											}
										}
									}
								}
								JOINT mixamorig:RightHandPinky1
								{
									OFFSET -20.411011 -0.303314 -8.561701
									CHANNELS 3 Xrotation Yrotation Zrotation
									JOINT mixamorig:RightHandPinky2
									{
										OFFSET -6.907349 0.000000 0.000000
										CHANNELS 3 Xrotation Yrotation Zrotation
										JOINT mixamorig:RightHandPinky3
										{
											OFFSET -4.623840 0.000000 0.000000
											CHANNELS 3 Xrotation Yrotation Zrotation
											JOINT mixamorig:RightHandPinky4
											{
												OFFSET -5.218353 0.000000 0.000000
												CHANNELS 3 Xrotation Yrotation Zrotation
												End Site
												{
													OFFSET 0.602097 5.118835 0.816273
												}
											}
										}
									}
								}
							}
						}
					}
				}
			}
		}
	}
	JOINT mixamorig:LeftUpLeg
	{
		OFFSET 18.168400 -13.561905 -0.039000
		CHANNELS 3 Xrotation Yrotation Zrotation
		JOINT mixamorig:LeftLeg
		{
			OFFSET 0.577358 -80.825211 -3.695000
			CHANNELS 3 Xrotation Yrotation Zrotation
			JOINT mixamorig:LeftFoot
			{
				OFFSET -0.577356 -83.370262 -6.520700
				CHANNELS 3 Xrotation Yrotation Zrotation
				JOINT mixamorig:LeftToeBase
				{
					OFFSET 0.750401 -20.798306 25.135401
					CHANNELS 3 Xrotation Yrotation Zrotation
					JOINT mixamorig:LeftToe_End
					{
						OFFSET -0.000500 0.001200 19.917799
						CHANNELS 3 Xrotation Yrotation Zrotation
						End Site
						{
							OFFSET 0.000000 19.917805 0.000000
						}
					}
				}
			}
		}
	}
	JOINT mixamorig:RightUpLeg
	{
		OFFSET -18.162500 -13.585098 -0.041000
		CHANNELS 3 Xrotation Yrotation Zrotation
		JOINT mixamorig:RightLeg
		{
			OFFSET -0.595024 -80.945297 -3.631900
			CHANNELS 3 Xrotation Yrotation Zrotation
			JOINT mixamorig:RightFoot
			{
				OFFSET 0.595024 -83.218193 -6.561200
				CHANNELS 3 Xrotation Yrotation Zrotation
				JOINT mixamorig:RightToeBase
				{
					OFFSET -0.753601 -20.807106 25.115000
					CHANNELS 3 Xrotation Yrotation Zrotation
					JOINT mixamorig:RightToe_End
					{
						OFFSET 0.000299 0.001700 19.918200
						CHANNELS 3 Xrotation Yrotation Zrotation
						End Site
						{
							OFFSET 0.000000 19.918203 0.000000
						}
					}
				}
			}
		}
	}
}
MOTION
Frames: 4
Frame Time: 0.033333
-0.745586 180.612061 0.017759 5.503425 -13.684889 -1.216846 5.448694 1.726984 -0.495634 -0.317435 3.943061 0.081862 -0.307947 3.951843 0.120523 19.216876 1.365318 -4.846005 22.357975 30.088530 -23.455503 0.000001 -0.000003 0.000001 0.000001 -0.000003 0.000001 0.000001 -0.000003 0.000001 -2.760695 -33.964591 -21.691202 -0.372761 30.229171 -36.802678 0.000001 -52.172280 0.000014 -73.957213 -9.008569 -19.715959 3.162362 5.793831 -57.154296 3.062844 5.728863 -56.232842 1.310912 4.046488 -35.887446 -0.000001 -0.000004 0.000006 -9.543552 16.282430 11.650062 -3.903607 3.527275 -6.563506 9.073526 -0.686644 4.317066 0.000002 0.000003 0.000001 1.468573 4.255395 -38.065829 5.774082 6.791958 -80.719674 0.506629 2.596835 -22.075214 -0.000001 -0.000001 0.000005 2.406135 5.232638 -49.295354 7.262976 6.870665 -93.188178 2.179298 5.029884 -46.829379 -0.000000 0.000001 0.000001 3.106788 7.060574 -30.916571 6.051682 2.744923 -83.083876 2.251079 5.096061 -47.642933 -0.000001 -0.000002 -0.000000 0.474026 6.743615 -0.461455 20.906118 45.440142 48.228024 0.000020 65.224475 0.000002 4.433186 3.808771 -8.118893 -3.039234 4.429008 27.132759 1.794724 -4.666708 42.053553 0.264984 -1.577692 13.222707 0.000002 0.000004 -0.000001 -1.838390 -17.987356 12.011242 12.413903 -20.037637 1.736451 8.849199 -12.438574 -0.470107 0.000001 0.000000 -0.000001 -0.306908 -3.276198 53.497563 2.733550 -5.528941 52.589144 0.078236 -1.042175 8.584817 -0.000003 0.000001 -0.000002 -0.720635 1.451910 16.575271 0.935361 -3.488266 30.012527 0.342406 -1.680908 14.213845 -0.000000 0.000003 0.000000 0.110283 -1.312562 14.462328 0.717753 -3.081614 26.216368 0.029148 -0.637163 5.235763 0.000001 -0.000000 -0.000000 -48.416315 1.530680 14.240688 45.045033 -5.508313 4.656301 -2.302360 0.696935 -10.991085 -1.410587 0.000004 0.000003 0.000000 -0.000000 0.000000 -10.213546 -9.730051 -11.109380 35.819202 -8.829362 -6.241032 -27.249398 -5.437991 17.297773 -1.152960 0.000030 0.000002 -0.000000 -0.000004 -0.000000 
-0.605453 180.895767 0.534586 5.750815 -13.277057 -1.042110 5.274510 1.719567 -0.564880 -0.336647 3.940902 0.114357 -0.327447 3.950634 0.153346 17.833590 1.435352 -5.250113 17.777850 31.354250 -24.097333 -0.000003 -0.000000 -0.000001 -0.000003 -0.000000 -0.000001 -0.000003 -0.000000 -0.000001 -2.882673 -34.069270 -22.082015 -0.069675 30.541041 -36.298477 0.000033 -53.931314 0.000048 -72.247084 -9.178615 -18.735999 3.252024 5.850258 -58.017177 3.083860 5.742785 -56.443201 1.258233 3.972888 -35.134637 -0.000001 0.000001 0.000002 -9.021420 16.460565 11.754182 -3.903614 3.527274 -6.563505 9.075411 -0.658298 4.319863 -0.000002 0.000004 0.000003 1.553761 4.361664 -39.199658 5.775854 6.792243 -80.734701 0.501358 2.583843 -21.958828 0.000003 -0.000002 0.000000 2.412791 5.238307 -49.347376 7.325462 6.866913 -93.710605 2.125910 4.979456 -46.217592 -0.000002 -0.000002 0.000000 3.021345 7.015805 -30.208783 5.855711 2.718318 -81.437343 2.141721 4.994520 -46.399271 -0.000002 -0.000003 0.000000 0.585985 5.026706 -2.506036 21.360524 49.127741 50.210940 0.000022 64.111605 -0.000015 0.616023 9.286313 -15.596308 -2.756359 3.336401 28.870441 1.928602 -4.810469 43.674111 0.251637 -1.569526 13.131081 0.000003 0.000001 -0.000002 -1.838395 -17.987354 12.011241 12.413901 -20.037637 1.736455 8.849197 -12.438574 -0.470105 0.000001 -0.000001 0.000000 -0.306912 -3.276198 53.497563 2.733546 -5.528949 52.589147 0.078242 -1.042177 8.584817 0.000005 0.000000 0.000000 -0.195413 -0.419433 17.249105 0.974485 -3.555020 30.649801 0.275770 -1.696789 14.203779 -0.000001 0.000005 0.000003 0.893466 -4.029676 16.353710 0.752570 -3.151263 26.856888 0.026430 -0.607047 4.987687 0.000000 0.000006 0.000001 -48.442406 1.489454 13.817539 44.882239 -5.560788 4.512843 -2.361294 0.684651 -10.430240 -1.617213 0.000005 -0.000001 -0.000000 -0.000001 0.000000 -10.101657 -9.900438 -11.125700 35.474408 -8.934370 -6.184195 -27.112503 -5.820311 16.307900 -1.142118 -0.000003 0.000020 0.000000 0.000000 0.000000 
-0.678236 180.221130 1.129555 5.285323 -13.027065 -1.220506 5.245779 1.702234 -0.536845 -0.308433 3.933619 0.102888 -0.299100 3.942804 0.142410 16.458335 1.525154 -5.338789 13.091976 32.602327 -24.332786 0.000002 -0.000000 -0.000002 0.000002 -0.000000 -0.000002 0.000002 -0.000000 -0.000002 -3.038948 -34.581651 -22.410231 0.314188 30.649880 -35.636003 0.000027 -54.605310 0.000036 -70.874503 -9.272660 -17.564711 3.306529 5.883692 -58.532720 3.111194 5.760705 -56.715722 1.198314 3.886574 -34.260509 0.000002 0.000002 0.000002 -8.586292 16.484703 11.666831 -3.903611 3.527276 -6.563503 9.088676 -0.456797 4.339597 0.000001 -0.000000 0.000001 1.618766 4.439950 -40.046905 5.787276 6.794079 -80.831116 0.495261 2.568717 -21.823464 -0.000000 -0.000001 -0.000002 2.420205 5.244643 -49.410832 7.329849 6.866637 -93.747345 2.088944 4.943869 -45.789766 0.000001 -0.000001 -0.000001 2.998692 7.004602 -30.014351 5.707803 2.694426 -80.190157 2.047208 4.903142 -45.303911 0.000000 0.000004 -0.000004 0.557094 5.495425 -2.057639 25.519492 52.434287 45.102703 -0.000001 57.613472 -0.000012 -8.796752 14.464094 -19.022628 -2.162598 2.743231 26.717784 1.886173 -4.765801 43.165795 0.241813 -1.566140 13.084991 0.000002 -0.000001 -0.000000 -1.838392 -17.987363 12.011240 12.413905 -20.037632 1.736452 8.849201 -12.438576 -0.470107 -0.000001 -0.000001 0.000002 -0.306908 -3.276202 53.497566 2.733549 -5.528939 52.589141 0.078239 -1.042173 8.584818 -0.000002 0.000000 0.000001 0.326078 -2.123940 15.576504 0.882119 -3.394582 29.125569 0.193136 -1.674695 13.859962 -0.000001 -0.000000 -0.000002 1.408192 -5.755745 16.308128 0.721371 -3.088986 26.283823 0.025915 -0.600831 4.936483 -0.000002 -0.000003 -0.000001 -48.504284 1.210909 13.794224 46.223196 -5.720849 4.575487 -3.179178 0.755022 -10.673928 -1.396801 0.000000 -0.000004 -0.000000 -0.000001 0.000000 -9.514652 -10.095265 -11.246933 35.930627 -8.888371 -6.182106 -27.671273 -5.872921 16.903139 -1.270892 -0.000003 -0.000001 -0.000000 -0.000004 0.000000 
-0.875524 178.716080 1.749548 4.177518 -12.997543 -1.707638 5.385677 1.701064 -0.413539 -0.221612 3.930068 0.078258 -0.211915 3.940181 0.118039 15.246756 1.621999 -5.115815 8.354651 33.780302 -24.008890 -0.000001 -0.000002 0.000002 -0.000001 -0.000002 0.000002 -0.000001 -0.000002 0.000002 -3.152488 -35.172653 -22.543903 0.314792 30.396411 -35.070563 0.000011 -54.159377 -0.000003 -69.880936 -9.214392 -16.830839 3.325147 5.894941 -58.699889 3.153201 5.787925 -57.133347 1.141576 3.802126 -33.414146 -0.000004 -0.000002 0.000002 -8.083391 16.440368 11.567193 -3.903612 3.527273 -6.563507 9.105960 -0.192858 4.365378 -0.000002 0.000000 0.000001 1.650100 4.476835 -40.449818 5.778460 6.792673 -80.756748 0.492088 2.560708 -21.751933 0.000001 -0.000001 -0.000002 2.421103 5.245429 -49.406481 7.293478 6.868905 -93.443121 2.077745 4.933030 -45.659890 0.000001 0.000002 0.000000 3.024187 7.019613 -30.215982 5.622562 2.679145 -79.469353 1.982123 4.838119 -44.537444 0.000003 -0.000004 0.000002 0.359967 8.532119 0.976716 35.534568 54.260597 32.851075 0.000012 44.191560 -0.000014 -21.572917 19.855568 -13.636616 -1.661171 2.942198 21.693816 1.682292 -4.539379 40.652873 0.234362 -1.542445 12.879920 0.000004 0.000001 -0.000001 -1.838388 -17.987360 12.011244 12.413904 -20.037634 1.736450 8.849198 -12.438573 -0.470106 -0.000002 0.000000 0.000000 -0.306909 -3.276198 53.497566 2.733551 -5.528943 52.589147 0.078236 -1.042177 8.584813 0.000003 0.000001 -0.000000 0.545219 -3.373018 11.431925 0.702796 -3.051106 25.936923 0.102679 -1.608231 13.158213 0.000000 -0.000001 -0.000000 1.726339 -7.385624 14.606838 0.641277 -2.921435 24.756287 0.026119 -0.603346 4.957107 -0.000001 -0.000002 -0.000001 -48.600491 0.746459 14.057339 48.926380 -5.831030 4.869569 -4.666975 0.906847 -11.259918 -0.841575 0.000007 -0.000002 0.000000 -0.000001 -0.000000 -8.874800 -10.270724 -11.327013 37.688485 -8.983102 -6.373568 -29.032867 -5.657969 17.872317 -1.542038 0.000006 0.000004 0.000000 -0.000001 -0.000000 
